<?xml version="1.0" encoding="UTF-8" standalone="no"?>
<!DOCTYPE svg PUBLIC "-//W3C//DTD SVG 1.1//EN" "http://www.w3.org/Graphics/SVG/1.1/DTD/svg11.dtd">
<svg xmlns="http://www.w3.org/2000/svg" version="1.1" viewBox="0.00 0.00 25.00 24.00">
<path fill="#010001" fill-opacity="0.004" d="
  M 0.00 0.00
  L 25.00 0.00
  L 25.00 24.00
  L 0.00 24.00
  L 0.00 0.00
  Z
  M 24.2164 5.3299
  A 4.65 4.65 0.0 0 0 19.5502 0.6962
  L 5.8503 0.7440
  A 4.65 4.65 0.0 0 0 1.2166 5.4102
  L 1.2636 18.8701
  A 4.65 4.65 0.0 0 0 5.9298 23.5038
  L 19.6297 23.4560
  A 4.65 4.65 0.0 0 0 24.2634 18.7898
  L 24.2164 5.3299
  Z"
/>
<path fill="#2f2f2f" d="
  M 24.2634 18.7898
  A 4.65 4.65 0.0 0 1 19.6297 23.4560
  L 5.9298 23.5038
  A 4.65 4.65 0.0 0 1 1.2636 18.8701
  L 1.2166 5.4102
  A 4.65 4.65 0.0 0 1 5.8503 0.7440
  L 19.5502 0.6962
  A 4.65 4.65 0.0 0 1 24.2164 5.3299
  L 24.2634 18.7898
  Z
  M 22.8762 5.2544
  A 3.30 3.30 0.0 0 0 19.5647 1.9660
  L 5.7648 2.0141
  A 3.30 3.30 0.0 0 0 2.4763 5.3256
  L 2.5238 18.9456
  A 3.30 3.30 0.0 0 0 5.8353 22.2340
  L 19.6352 22.1859
  A 3.30 3.30 0.0 0 0 22.9237 18.8744
  L 22.8762 5.2544
  Z"
/>
<path fill="#010001" fill-opacity="0.004" d="
  M 22.9237 18.8744
  A 3.30 3.30 0.0 0 1 19.6352 22.1859
  L 5.8353 22.2340
  A 3.30 3.30 0.0 0 1 2.5238 18.9456
  L 2.4763 5.3256
  A 3.30 3.30 0.0 0 1 5.7648 2.0141
  L 19.5647 1.9660
  A 3.30 3.30 0.0 0 1 22.8762 5.2544
  L 22.9237 18.8744
  Z
  M 17.6796 5.4381
  A 0.94 0.94 0.0 0 0 16.7380 4.4997
  L 4.9580 4.5203
  A 0.94 0.94 0.0 0 0 4.0196 5.4619
  L 4.0204 5.8819
  A 0.94 0.94 0.0 0 0 4.9620 6.8203
  L 16.7420 6.7997
  A 0.94 0.94 0.0 0 0 17.6804 5.8581
  L 17.6796 5.4381
  Z
  M 21.4382 9.9093
  A 1.01 1.01 0.0 0 0 20.4212 8.9063
  L 5.0415 9.0137
  A 1.01 1.01 0.0 0 0 4.0386 10.0307
  L 4.0418 10.4907
  A 1.01 1.01 0.0 0 0 5.0588 11.4937
  L 20.4385 11.3863
  A 1.01 1.01 0.0 0 0 21.4414 10.3693
  L 21.4382 9.9093
  Z
  M 21.5124 15.6653
  A 2.39 2.39 0.0 0 0 19.1265 13.2711
  L 6.3866 13.2489
  A 2.39 2.39 0.0 0 0 3.9924 15.6347
  L 3.9876 18.3547
  A 2.39 2.39 0.0 0 0 6.3735 20.7489
  L 19.1134 20.7711
  A 2.39 2.39 0.0 0 0 21.5076 18.3853
  L 21.5124 15.6653
  Z"
/>
<rect fill="#2f2f2f" x="-6.83" y="-1.15" transform="translate(10.85,5.66) rotate(-0.1)" width="13.66" height="2.30" rx="0.94"/>
<rect fill="#2f2f2f" x="-8.70" y="-1.24" transform="translate(12.74,10.20) rotate(-0.4)" width="17.40" height="2.48" rx="1.01"/>
<rect fill="#2f2f2f" x="-8.76" y="-3.75" transform="translate(12.75,17.01) rotate(0.1)" width="17.52" height="7.50" rx="2.39"/>
</svg>
